<svg width="52" height="52" viewBox="0 0 52 52" fill="none" xmlns="http://www.w3.org/2000/svg">
<g filter="url(#filter0_d_63_901)">
<rect width="48" height="48" fill="#F7DF1E"/>
<rect x="1" y="1" width="46" height="46" stroke="white" stroke-width="2"/>
</g>
<path d="M10 30V28H8V26H12V28H18V16H22V28H20V30H10ZM26 30V28H24V26H28V28H34V24H26V22H24V18H26V16H36V18H38V20H34V18H28V22H36V24H38V28H36V30H26Z" fill="black"/>
<line x1="48" y1="45.25" y2="45.25" stroke="black" stroke-opacity="0.2" stroke-width="0.5"/>
<line x1="48" y1="44.25" y2="44.25" stroke="black" stroke-opacity="0.2" stroke-width="0.5"/>
<line x1="48" y1="43.25" y2="43.25" stroke="black" stroke-opacity="0.2" stroke-width="0.5"/>
<path d="M48 42.25L0 42.25" stroke="black" stroke-opacity="0.2" stroke-width="0.5"/>
<line x1="48" y1="41.25" y2="41.25" stroke="black" stroke-opacity="0.2" stroke-width="0.5"/>
<path d="M48 40.25L0 40.25" stroke="black" stroke-opacity="0.2" stroke-width="0.5"/>
<line x1="48" y1="39.25" y2="39.25" stroke="black" stroke-opacity="0.2" stroke-width="0.5"/>
<path d="M48 38.25L0 38.25" stroke="black" stroke-opacity="0.2" stroke-width="0.5"/>
<line x1="48" y1="37.25" y2="37.25" stroke="black" stroke-opacity="0.2" stroke-width="0.5"/>
<path d="M48 36.25L0 36.25" stroke="black" stroke-opacity="0.2" stroke-width="0.5"/>
<line x1="48" y1="35.25" y2="35.25" stroke="black" stroke-opacity="0.2" stroke-width="0.5"/>
<path d="M48 34.25L0 34.25" stroke="black" stroke-opacity="0.2" stroke-width="0.5"/>
<line x1="48" y1="33.25" y2="33.25" stroke="black" stroke-opacity="0.2" stroke-width="0.5"/>
<path d="M48 32.25L0 32.25" stroke="black" stroke-opacity="0.2" stroke-width="0.5"/>
<line x1="48" y1="31.25" y2="31.25" stroke="black" stroke-opacity="0.2" stroke-width="0.5"/>
<path d="M48 30.25L0 30.25" stroke="black" stroke-opacity="0.2" stroke-width="0.5"/>
<line x1="48" y1="29.25" y2="29.25" stroke="black" stroke-opacity="0.2" stroke-width="0.5"/>
<path d="M48 28.25L0 28.25" stroke="black" stroke-opacity="0.2" stroke-width="0.5"/>
<line x1="48" y1="27.25" y2="27.25" stroke="black" stroke-opacity="0.2" stroke-width="0.5"/>
<path d="M48 26.25L0 26.25" stroke="black" stroke-opacity="0.2" stroke-width="0.5"/>
<line x1="48" y1="25.25" y2="25.25" stroke="black" stroke-opacity="0.2" stroke-width="0.5"/>
<path d="M48 24.25L0 24.25" stroke="black" stroke-opacity="0.2" stroke-width="0.5"/>
<line x1="48" y1="23.25" y2="23.25" stroke="black" stroke-opacity="0.2" stroke-width="0.5"/>
<path d="M48 22.25L0 22.25" stroke="black" stroke-opacity="0.2" stroke-width="0.5"/>
<line x1="48" y1="21.25" y2="21.25" stroke="black" stroke-opacity="0.2" stroke-width="0.5"/>
<path d="M48 20.25L0 20.25" stroke="black" stroke-opacity="0.2" stroke-width="0.5"/>
<line x1="48" y1="19.25" y2="19.25" stroke="black" stroke-opacity="0.2" stroke-width="0.5"/>
<path d="M48 18.25L0 18.25" stroke="black" stroke-opacity="0.2" stroke-width="0.5"/>
<line x1="48" y1="17.25" y2="17.25" stroke="black" stroke-opacity="0.2" stroke-width="0.5"/>
<path d="M48 16.25L0 16.25" stroke="black" stroke-opacity="0.2" stroke-width="0.5"/>
<line x1="48" y1="15.25" y2="15.25" stroke="black" stroke-opacity="0.2" stroke-width="0.5"/>
<path d="M48 14.25L0 14.25" stroke="black" stroke-opacity="0.2" stroke-width="0.5"/>
<line x1="48" y1="13.25" y2="13.25" stroke="black" stroke-opacity="0.2" stroke-width="0.5"/>
<path d="M48 12.25L0 12.25" stroke="black" stroke-opacity="0.2" stroke-width="0.5"/>
<line x1="48" y1="11.25" y2="11.25" stroke="black" stroke-opacity="0.2" stroke-width="0.5"/>
<path d="M48 10.25L0 10.25" stroke="black" stroke-opacity="0.2" stroke-width="0.5"/>
<line x1="48" y1="9.25" y2="9.25" stroke="black" stroke-opacity="0.2" stroke-width="0.5"/>
<path d="M48 8.25L0 8.25" stroke="black" stroke-opacity="0.2" stroke-width="0.5"/>
<line x1="48" y1="7.25" y2="7.25" stroke="black" stroke-opacity="0.2" stroke-width="0.5"/>
<path d="M48 6.25L0 6.25" stroke="black" stroke-opacity="0.2" stroke-width="0.5"/>
<line x1="48" y1="5.25" y2="5.25" stroke="black" stroke-opacity="0.2" stroke-width="0.5"/>
<path d="M48 4.25L0 4.25" stroke="black" stroke-opacity="0.2" stroke-width="0.5"/>
<line x1="48" y1="3.25" y2="3.25" stroke="black" stroke-opacity="0.2" stroke-width="0.5"/>
<line x1="48" y1="2.25" y2="2.25" stroke="black" stroke-opacity="0.2" stroke-width="0.5"/>
<line x1="48" y1="0.25" y2="0.25" stroke="black" stroke-opacity="0.2" stroke-width="0.5"/>
<line x1="48" y1="1.25" y2="1.25" stroke="black" stroke-opacity="0.2" stroke-width="0.5"/>
<line x1="48" y1="46.25" y2="46.25" stroke="black" stroke-opacity="0.2" stroke-width="0.5"/>
<line x1="48" y1="47.25" y2="47.25" stroke="black" stroke-opacity="0.2" stroke-width="0.5"/>
<defs>
<filter id="filter0_d_63_901" x="0" y="0" width="52" height="52" filterUnits="userSpaceOnUse" color-interpolation-filters="sRGB">
<feFlood flood-opacity="0" result="BackgroundImageFix"/>
<feColorMatrix in="SourceAlpha" type="matrix" values="0 0 0 0 0 0 0 0 0 0 0 0 0 0 0 0 0 0 127 0" result="hardAlpha"/>
<feOffset dx="4" dy="4"/>
<feComposite in2="hardAlpha" operator="out"/>
<feColorMatrix type="matrix" values="0 0 0 0 0 0 0 0 0 0 0 0 0 0 0 0 0 0 1 0"/>
<feBlend mode="normal" in2="BackgroundImageFix" result="effect1_dropShadow_63_901"/>
<feBlend mode="normal" in="SourceGraphic" in2="effect1_dropShadow_63_901" result="shape"/>
</filter>
</defs>
</svg>
